<?xml version="1.0" encoding="utf-8"?>
<!-- Generator: Adobe Illustrator 24.3.0, SVG Export Plug-In . SVG Version: 6.00 Build 0)  -->
<svg version="1.1" id="Layer_1" xmlns="http://www.w3.org/2000/svg" xmlns:xlink="http://www.w3.org/1999/xlink" x="0px" y="0px"
	 viewBox="0 0 1920 253" style="enable-background:new 0 0 1920 253;" xml:space="preserve">
<style type="text/css">
	.st0{fill:#FFFFFF;}
</style>
<path class="st0" d="M218.18,124.05c0,53.78-35.52,89.54-91.29,89.54H53.6V35h73.29C182.66,35,218.18,70.52,218.18,124.05z
	 M95.87,68.27v111.81h31.02c30.51,0,47.27-19.27,47.27-56.03c0-36.53-16.76-55.78-47.27-55.78H95.87z"/>
<path class="st0" d="M339.83,175.32H264.3l-14.76,38.27h-42.27L278.31,35h48.77l71.29,178.59h-44.28L339.83,175.32z M276.8,142.31
	h50.78l-24.77-66.04h-0.75L276.8,142.31z"/>
<path class="st0" d="M368.18,35h46.02l47.78,131.32h0.5L510,35h44.52l-69.29,178.59h-48.02L368.18,35z"/>
<path class="st0" d="M558.12,35h43.27v178.59h-43.27V35z"/>
<path class="st0" d="M785.5,124.05c0,53.78-35.52,89.54-91.29,89.54h-73.29V35h73.29C749.98,35,785.5,70.52,785.5,124.05z
	 M663.19,68.27v111.81h31.02c30.51,0,47.27-19.27,47.27-56.03c0-36.53-16.76-55.78-47.27-55.78H663.19z"/>
<path class="st0" d="M831.39,213.59V35h83.05c43.52,0,69.53,20.01,69.53,58.53c0,26.52-15.52,43.52-35.27,51.53l41.02,68.53H943.2
	l-36.03-61.78h-33.51v61.78H831.39z M908.92,118.54c22.77,0,32.52-8.5,32.52-25.01s-9.76-25.26-32.52-25.26h-35.26v50.27H908.92z"/>
<path class="st0" d="M999.57,167.32h46.27v46.27h-46.27V167.32z"/>
<path class="st0" d="M1136.99,153.31v60.28h-42.28V35h80.3c44.76,0,70.28,20.26,70.28,59.29c0,39.01-25.52,59.02-69.79,59.02
	H1136.99z M1170.49,120.05c22.52,0,32.28-9.01,32.28-25.76c0-17.26-9.76-26.02-32.28-26.02h-33.5v51.78H1170.49z"/>
<path class="st0" d="M1253.14,213.59V35h135.07v33.27h-92.81v39.02h81.79v33.27h-81.79v39.52h94.56v33.51H1253.14z"/>
<path class="st0" d="M1405.03,213.59V35h83.05c43.52,0,69.53,20.01,69.53,58.53c0,26.52-15.52,43.52-35.27,51.53l41.02,68.53h-46.52
	l-36.03-61.78h-33.5v61.78H1405.03z M1482.56,118.54c22.77,0,32.52-8.5,32.52-25.01s-9.76-25.26-32.52-25.26h-35.25v50.27H1482.56z"
	/>
<path class="st0" d="M1570.95,213.59V35h135.07v33.27h-92.79v39.02h81.79v33.27h-81.79v39.52h94.54v33.51H1570.95z"/>
<path class="st0" d="M1768.38,180.08h98.8v33.51h-151.83v-30.52l97.31-114.8h-94.29V35h146.82v32.02L1768.38,180.08z"/>
</svg>
